# xmcd CD database file
#
# Track frame offsets:
#	150
#	30652
#	57960
#	87322
#	123880
#	152332
#
# Disc length: 2353 seconds
#
# Revision: 4
# Processed by: cddbd v1.4PL0 Copyright (c) Steve Scherf et al.
# Submitted via: CDex 1.50Beta7
#
DISCID=3d092f06
DTITLE=Lee Morgan - The Sixth Sense
DYEAR=1967
DGENRE=Jazz
TTITLE0=The Sixth Sense
TTITLE1=Short Count
TTITLE2=Psychedlic
TTITLE3=Afreaka
TTITLE4=Anti Climax
TTITLE5=The Cry Of My People
EXTD=YEAR: 1967
EXTT0=
EXTT1=
EXTT2=
EXTT3=
EXTT4=
EXTT5=
PLAYORDER=
